<svg width="937" height="267" viewBox="0 0 937 267" fill="none" xmlns="http://www.w3.org/2000/svg">
<g clip-path="url(#clip0)">
<path d="M346.887 12.7441C346.887 12.7441 -68.241 60.7772 69.5192 247.87C77.0892 128.037 108.008 105.506 346.887 12.7441Z" fill="#1E555F"/>
<path d="M346.888 53.4883C346.888 53.4883 -3.72162 106.463 114.495 266.999C115.44 194.02 142.498 130.3 346.888 53.4883Z" fill="#35949C"/>
<path d="M261.021 0C261.021 0 -87.3801 43.674 20.8362 190.647C25.8505 95.3304 79.4656 67.4129 261.021 0Z" fill="#75A449"/>
<path d="M219.795 197.839L187.195 146.585H200.502C201.246 146.527 201.991 146.707 202.627 147.099C203.143 147.495 203.569 147.997 203.877 148.57L229.656 190.773C230.021 189.606 230.486 188.472 231.045 187.385L255.381 148.862C255.755 148.242 256.223 147.685 256.77 147.21C257.254 146.789 257.879 146.566 258.52 146.585H271.271L238.546 197.131L272.382 251.911H259.159C258.727 251.937 258.295 251.876 257.887 251.733C257.479 251.59 257.104 251.367 256.783 251.078C256.223 250.526 255.754 249.889 255.394 249.19L228.893 205.044C228.576 206.062 228.162 207.047 227.656 207.987L201.877 249.231C201.48 249.907 201.014 250.539 200.488 251.119C200.194 251.406 199.843 251.629 199.458 251.772C199.073 251.916 198.662 251.977 198.251 251.952H185.848L219.795 197.839Z" fill="#3B8D94"/>
<path d="M316.232 145.404C320.171 145.363 324.087 146.012 327.802 147.32C331.185 148.499 334.294 150.35 336.942 152.762C339.519 155.141 341.552 158.048 342.901 161.286C344.365 164.803 345.093 168.582 345.04 172.392C345.084 175.411 344.677 178.419 343.831 181.318C343.097 183.815 341.931 186.164 340.387 188.259C338.9 190.248 337.064 191.95 334.97 193.285C332.765 194.706 330.377 195.822 327.872 196.602C334.298 198.407 339.137 201.447 342.387 205.723C345.747 210.373 347.458 216.011 347.248 221.743C347.319 226.24 346.439 230.701 344.665 234.835C343.025 238.591 340.617 241.963 337.595 244.733C334.559 247.482 331.009 249.605 327.15 250.98C323.05 252.445 318.725 253.178 314.371 253.145C309.8 253.256 305.246 252.546 300.925 251.049C297.415 249.79 294.2 247.825 291.48 245.274C288.87 242.77 286.726 239.823 285.146 236.57C283.443 233.056 282.049 229.4 280.979 225.644L286.216 223.284C287.122 222.866 288.107 222.643 289.105 222.632C289.966 222.616 290.815 222.831 291.564 223.257C292.301 223.708 292.868 224.392 293.175 225.2L293.453 225.825C293.55 226.047 293.633 226.283 293.73 226.533C294.369 227.921 295.119 229.559 296.078 231.336C297.046 233.201 298.303 234.901 299.8 236.375C301.486 238.041 303.457 239.391 305.62 240.36C308.355 241.512 311.307 242.061 314.274 241.97C317.388 242.039 320.48 241.423 323.33 240.165C325.79 239.073 327.998 237.485 329.816 235.501C333.12 231.821 334.967 227.062 335.011 222.118C335.042 219.48 334.686 216.852 333.956 214.316C333.243 211.973 331.909 209.867 330.094 208.222C327.86 206.304 325.22 204.918 322.371 204.168C318.253 203.086 314.003 202.586 309.746 202.683V193.132C313.369 193.21 316.984 192.742 320.469 191.744C323.127 190.976 325.599 189.672 327.733 187.912C329.598 186.368 331.033 184.369 331.9 182.109C332.776 179.708 333.209 177.168 333.178 174.613C333.218 171.902 332.747 169.208 331.789 166.672C330.978 164.573 329.717 162.678 328.094 161.119C326.503 159.629 324.607 158.502 322.538 157.815C320.301 157.06 317.954 156.684 315.593 156.704C313.226 156.679 310.874 157.079 308.648 157.884C304.501 159.386 301.044 162.348 298.925 166.214C297.812 168.181 296.975 170.293 296.439 172.489C296.212 173.659 295.636 174.734 294.786 175.571C294.007 176.216 293.02 176.557 292.008 176.528H291.286C290.997 176.508 290.709 176.471 290.425 176.417L284.008 175.265C284.541 170.837 285.798 166.527 287.73 162.507C289.415 158.983 291.774 155.823 294.675 153.206C297.518 150.696 300.819 148.759 304.398 147.5C308.193 146.128 312.196 145.419 316.232 145.404V145.404Z" fill="#3B8D94"/>
<path d="M405.419 239.971H448.158V251.951H392.043V146.584H405.419V239.971Z" fill="#3B8D94"/>
<path d="M523.761 146.584V158.259H476.341V193.257H514.733V204.432H476.341V240.401H523.761V252.007H462.896V146.64L523.761 146.584Z" fill="#3B8D94"/>
<path d="M624.269 251.951H613.935C612.889 251.998 611.862 251.663 611.045 251.007C610.297 250.351 609.729 249.515 609.393 248.578L600.156 223.131H555.819L546.582 248.578C546.239 249.487 545.67 250.295 544.929 250.924C544.129 251.624 543.09 251.992 542.026 251.951H531.692L571.195 146.584H584.766L624.269 251.951ZM559.542 212.831H596.419L580.904 169.962C579.71 166.719 578.721 163.404 577.946 160.036C577.432 162.049 576.946 163.895 576.46 165.589C575.973 167.283 575.515 168.768 575.071 170.031L559.542 212.831Z" fill="#3B8D94"/>
<path d="M687.329 163.049C687.004 163.683 686.561 164.248 686.023 164.715C685.507 165.097 684.873 165.288 684.231 165.256C683.191 165.163 682.213 164.723 681.453 164.007C680.194 163.011 678.882 162.084 677.523 161.23C675.715 160.111 673.798 159.181 671.8 158.454C669.197 157.559 666.454 157.136 663.702 157.204C661.007 157.156 658.325 157.593 655.785 158.495C653.643 159.246 651.68 160.433 650.02 161.98C648.494 163.434 647.309 165.207 646.548 167.172C645.746 169.219 645.346 171.401 645.367 173.599C645.266 176.191 645.98 178.75 647.409 180.915C648.834 182.929 650.665 184.622 652.785 185.885C655.181 187.332 657.723 188.524 660.368 189.439L669.05 192.577C672.008 193.659 674.911 194.867 677.731 196.214C680.502 197.525 683.059 199.247 685.315 201.322C687.598 203.462 689.426 206.04 690.69 208.902C692.149 212.389 692.845 216.147 692.732 219.925C692.757 224.347 692.01 228.74 690.523 232.905C689.138 236.881 686.916 240.515 684.007 243.561C681.099 246.607 677.571 248.995 673.661 250.563C669.201 252.34 664.433 253.213 659.632 253.132C653.609 253.209 647.644 251.942 642.173 249.425C637.037 247.038 632.446 243.621 628.686 239.388L632.547 232.613C632.926 232.074 633.396 231.604 633.936 231.225C634.454 230.866 635.07 230.677 635.7 230.684C636.964 230.822 638.137 231.408 639.006 232.336C640.491 233.63 642.044 234.845 643.659 235.973C645.768 237.431 648.032 238.651 650.409 239.61C653.508 240.801 656.814 241.362 660.132 241.262C663.022 241.311 665.896 240.841 668.619 239.874C670.975 239.018 673.124 237.674 674.925 235.931C676.668 234.219 678.018 232.149 678.884 229.865C679.834 227.355 680.305 224.69 680.273 222.007C680.387 219.25 679.681 216.521 678.245 214.164C676.848 212.098 675.025 210.356 672.897 209.055C670.515 207.617 667.975 206.457 665.327 205.598L656.632 202.683C653.671 201.679 650.768 200.511 647.937 199.185C645.158 197.891 642.61 196.151 640.395 194.034C638.093 191.792 636.273 189.104 635.047 186.135C632.339 178.864 632.339 170.861 635.047 163.59C636.411 160.054 638.485 156.834 641.142 154.128C643.798 151.423 646.98 149.291 650.493 147.861C654.634 146.172 659.077 145.345 663.549 145.432C668.715 145.362 673.845 146.305 678.648 148.208C683.148 150.042 687.212 152.799 690.579 156.302L687.329 163.049Z" fill="#3B8D94"/>
<path d="M725.651 251.951H712.289V146.584H725.651V251.951Z" fill="#3B8D94"/>
<path d="M761.669 147.057C762.448 147.568 763.119 148.229 763.641 149.001L820.895 228.422C820.756 227.144 820.659 225.909 820.617 224.715C820.576 223.521 820.617 222.341 820.617 221.217V146.585H832.341V251.952H825.576C824.657 251.984 823.744 251.783 822.923 251.369C822.089 250.866 821.374 250.189 820.826 249.384L763.683 170.032C763.766 171.268 763.836 172.462 763.891 173.642C763.947 174.822 763.891 175.905 763.891 176.876V251.952H752.168V146.585H759.113C759.99 146.542 760.865 146.703 761.669 147.057V147.057Z" fill="#3B8D94"/>
<path d="M900.387 241.554C902.842 241.57 905.296 241.435 907.734 241.151C909.864 240.906 911.971 240.502 914.04 239.943C915.937 239.424 917.794 238.77 919.596 237.986C921.385 237.21 923.133 236.344 924.833 235.39V212.178H909.554C909.167 212.196 908.78 212.132 908.419 211.991C908.057 211.85 907.73 211.635 907.457 211.359C907.2 211.097 906.998 210.787 906.862 210.446C906.726 210.105 906.659 209.741 906.665 209.374V201.295H937.001V241.734C934.562 243.621 931.964 245.293 929.236 246.732C926.483 248.186 923.6 249.381 920.624 250.299C917.417 251.288 914.132 252.003 910.804 252.437C907.031 252.915 903.231 253.147 899.428 253.131C892.656 253.213 885.941 251.875 879.718 249.203C873.849 246.654 868.585 242.893 864.273 238.166C859.84 233.207 856.428 227.423 854.23 221.146C851.752 214.136 850.53 206.744 850.619 199.309C850.528 191.831 851.726 184.392 854.161 177.32C856.346 171.011 859.796 165.215 864.301 160.286C868.752 155.521 874.182 151.775 880.219 149.305C886.862 146.626 893.974 145.3 901.137 145.404C904.787 145.382 908.431 145.689 912.026 146.32C915.224 146.887 918.356 147.776 921.374 148.972C924.167 150.075 926.835 151.471 929.333 153.137C931.771 154.776 934.054 156.635 936.153 158.69L932.306 165.2C932.033 165.778 931.605 166.268 931.071 166.619C930.537 166.969 929.916 167.165 929.278 167.186C928.413 167.147 927.576 166.868 926.861 166.38C925.708 165.686 924.43 164.853 922.999 163.868C921.356 162.786 919.617 161.857 917.805 161.091C915.468 160.087 913.04 159.31 910.554 158.773C907.304 158.086 903.986 157.765 900.664 157.815C895.486 157.744 890.349 158.731 885.566 160.716C881.157 162.598 877.227 165.444 874.065 169.046C870.763 172.871 868.276 177.331 866.759 182.151C864.985 187.723 864.122 193.545 864.203 199.393C864.111 205.439 865.007 211.46 866.856 217.218C868.436 222.099 870.982 226.612 874.343 230.489C877.489 234.078 881.393 236.924 885.775 238.819C890.405 240.727 895.379 241.658 900.387 241.554V241.554Z" fill="#3B8D94"/>
</g>
<defs>
<clipPath id="clip0">
<rect width="937" height="267" fill="white"/>
</clipPath>
</defs>
</svg>
